<svg width="400" height="400" viewBox="0 0 400 400" fill="none" xmlns="http://www.w3.org/2000/svg">
  <defs>
    <linearGradient id="pinkGradient" x1="0%" y1="0%" x2="100%" y2="100%">
      <stop offset="0%" style="stop-color:#fce7f3;stop-opacity:1" />
      <stop offset="50%" style="stop-color:#f9a8d4;stop-opacity:1" />
      <stop offset="100%" style="stop-color:#ec4899;stop-opacity:1" />
    </linearGradient>
  </defs>
  
  <rect width="400" height="400" fill="#fdf2f8"/>
  
  <!-- Sneaker -->
  <g transform="translate(50, 150)">
    <!-- Shoe Body -->
    <path d="M30 80 Q30 60 60 60 L240 60 Q270 60 270 80 L270 100 Q270 120 240 120 L80 120 Q50 120 40 110 L30 100 Z" fill="url(#pinkGradient)"/>
    
    <!-- Sole -->
    <ellipse cx="150" cy="120" rx="120" ry="15" fill="#ffffff"/>
    <ellipse cx="150" cy="125" rx="115" ry="8" fill="#f3f4f6"/>
    
    <!-- Laces -->
    <circle cx="100" cy="75" r="3" fill="#ffffff"/>
    <circle cx="120" cy="75" r="3" fill="#ffffff"/>
    <circle cx="140" cy="75" r="3" fill="#ffffff"/>
    <circle cx="160" cy="75" r="3" fill="#ffffff"/>
    <circle cx="180" cy="75" r="3" fill="#ffffff"/>
    
    <!-- Side Logo -->
    <circle cx="200" cy="85" r="8" fill="#ffffff" opacity="0.8"/>
    <path d="M196 85 L200 81 L204 85 L200 89 Z" fill="#ec4899"/>
  </g>
</svg>