<svg width="400" height="400" viewBox="0 0 400 400" fill="none" xmlns="http://www.w3.org/2000/svg">
  <rect width="400" height="400" fill="#f8fafc"/>
  
  <!-- Platform Sneaker -->
  <g transform="translate(50, 130)">
    <!-- Shoe Body -->
    <path d="M30 60 Q30 40 60 40 L240 40 Q270 40 270 60 L270 80 Q270 100 240 100 L80 100 Q50 100 40 90 L30 80 Z" fill="#ffffff"/>
    
    <!-- Platform Sole -->
    <ellipse cx="150" cy="100" rx="120" ry="20" fill="#f3f4f6"/>
    <ellipse cx="150" cy="105" rx="115" ry="15" fill="#e5e7eb"/>
    <ellipse cx="150" cy="110" rx="110" ry="10" fill="#d1d5db"/>
    
    <!-- Shoe Details -->
    <path d="M60 50 Q150 30 240 50" stroke="#e5e7eb" stroke-width="2" fill="none"/>
    
    <!-- Laces -->
    <circle cx="100" cy="55" r="2" fill="#9ca3af"/>
    <circle cx="120" cy="55" r="2" fill="#9ca3af"/>
    <circle cx="140" cy="55" r="2" fill="#9ca3af"/>
    <circle cx="160" cy="55" r="2" fill="#9ca3af"/>
    <circle cx="180" cy="55" r="2" fill="#9ca3af"/>
    
    <!-- Side Stripe -->
    <path d="M50 70 Q150 65 250 70" stroke="#d1d5db" stroke-width="3" fill="none"/>
    
    <!-- Logo -->
    <circle cx="200" cy="65" r="6" fill="#f3f4f6"/>
    <path d="M197 65 L200 62 L203 65 L200 68 Z" fill="#6b7280"/>
  </g>
</svg>