<svg width="500" height="500" viewBox="0 0 500 500" fill="none" xmlns="http://www.w3.org/2000/svg">
  <defs>
    <linearGradient id="shoeGradient" x1="0%" y1="0%" x2="100%" y2="100%">
      <stop offset="0%" style="stop-color:#ec4899;stop-opacity:1" />
      <stop offset="100%" style="stop-color:#f43f5e;stop-opacity:1" />
    </linearGradient>
    <linearGradient id="heelGradient" x1="0%" y1="0%" x2="100%" y2="100%">
      <stop offset="0%" style="stop-color:#be185d;stop-opacity:1" />
      <stop offset="100%" style="stop-color:#e11d48;stop-opacity:1" />
    </linearGradient>
  </defs>
  
  <!-- Background Circle -->
  <circle cx="250" cy="250" r="200" fill="#fdf2f8" opacity="0.5"/>
  
  <!-- High Heel Shoe -->
  <g transform="translate(100, 150)">
    <!-- Shoe Body -->
    <path d="M50 120 Q50 100 80 100 L250 100 Q280 100 280 120 L280 140 Q280 160 250 160 L100 160 Q80 160 70 150 L50 140 Z" fill="url(#shoeGradient)"/>
    
    <!-- Heel -->
    <path d="M220 160 L230 160 L235 220 L225 220 Z" fill="url(#heelGradient)"/>
    
    <!-- Sole -->
    <ellipse cx="165" cy="160" rx="115" ry="8" fill="#be185d" opacity="0.8"/>
    
    <!-- Decorative Strap -->
    <path d="M80 120 Q120 110 160 120" stroke="#fbbf24" stroke-width="3" fill="none"/>
    
    <!-- Buckle -->
    <rect x="155" y="115" width="12" height="8" fill="#fbbf24" rx="2"/>
    
    <!-- Highlight -->
    <ellipse cx="150" cy="115" rx="30" ry="8" fill="#ffffff" opacity="0.3"/>
  </g>
  
  <!-- Floating Elements -->
  <circle cx="400" cy="100" r="8" fill="#f472b6" opacity="0.6">
    <animate attributeName="cy" values="100;80;100" dur="3s" repeatCount="indefinite"/>
  </circle>
  
  <circle cx="80" cy="350" r="6" fill="#ec4899" opacity="0.4">
    <animate attributeName="cy" values="350;330;350" dur="2.5s" repeatCount="indefinite"/>
  </circle>
  
  <circle cx="420" cy="380" r="10" fill="#f9a8d4" opacity="0.5">
    <animate attributeName="cy" values="380;360;380" dur="4s" repeatCount="indefinite"/>
  </circle>
  
  <!-- Sparkles -->
  <g fill="#fbbf24" opacity="0.7">
    <path d="M150 80 L152 85 L157 87 L152 89 L150 94 L148 89 L143 87 L148 85 Z">
      <animateTransform attributeName="transform" type="rotate" values="0 150 87;360 150 87" dur="6s" repeatCount="indefinite"/>
    </path>
    <path d="M350 200 L351 203 L354 204 L351 205 L350 208 L349 205 L346 204 L349 203 Z">
      <animateTransform attributeName="transform" type="rotate" values="0 350 204;360 350 204" dur="4s" repeatCount="indefinite"/>
    </path>
    <path d="M120 300 L121 302 L123 303 L121 304 L120 306 L119 304 L117 303 L119 302 Z">
      <animateTransform attributeName="transform" type="rotate" values="0 120 303;360 120 303" dur="5s" repeatCount="indefinite"/>
    </path>
  </g>
</svg>