<svg width="100" height="100" viewBox="0 0 100 100" fill="none" xmlns="http://www.w3.org/2000/svg">
  <rect width="100" height="100" rx="20" fill="#F3F4F6"/>
  <g transform="translate(20, 20)">
    <!-- Casual shoe outline -->
    <path d="M10 35 C10 35, 15 30, 25 30 C35 30, 45 32, 50 35 C55 38, 55 45, 50 48 C45 50, 35 50, 25 50 C15 50, 10 45, 10 35 Z" fill="#6B7280" stroke="#374151" stroke-width="2"/>
    <!-- Shoe sole -->
    <path d="M8 48 C8 48, 15 52, 25 52 C35 52, 45 52, 52 48 C52 50, 45 54, 25 54 C15 54, 8 50, 8 48 Z" fill="#4B5563"/>
    <!-- Laces -->
    <circle cx="20" cy="38" r="2" fill="#E5E7EB"/>
    <circle cx="30" cy="38" r="2" fill="#E5E7EB"/>
    <circle cx="40" cy="38" r="2" fill="#E5E7EB"/>
    <!-- Casual style lines -->
    <path d="M15 42 L45 42" stroke="#9CA3AF" stroke-width="1"/>
  </g>
  <text x="50" y="85" text-anchor="middle" fill="#374151" font-family="Arial, sans-serif" font-size="12" font-weight="bold">Casual</text>
</svg>