<svg width="400" height="400" viewBox="0 0 400 400" fill="none" xmlns="http://www.w3.org/2000/svg">
  <defs>
    <linearGradient id="heelsGradient" x1="0%" y1="0%" x2="100%" y2="100%">
      <stop offset="0%" style="stop-color:#ec4899;stop-opacity:1" />
      <stop offset="100%" style="stop-color:#be185d;stop-opacity:1" />
    </linearGradient>
  </defs>
  
  <rect width="400" height="400" fill="linear-gradient(135deg, #fdf2f8 0%, #fce7f3 100%)"/>
  
  <!-- Multiple High Heels -->
  <g transform="translate(50, 100)">
    <!-- First Heel -->
    <path d="M20 80 Q20 60 50 60 L150 60 Q180 60 180 80 L180 100 Q180 120 150 120 L70 120 Q50 120 40 110 L20 100 Z" fill="url(#heelsGradient)"/>
    <path d="M130 120 L140 120 L145 180 L135 180 Z" fill="#9d174d"/>
    
    <!-- Second Heel -->
    <g transform="translate(120, 40)">
      <path d="M20 80 Q20 60 50 60 L150 60 Q180 60 180 80 L180 100 Q180 120 150 120 L70 120 Q50 120 40 110 L20 100 Z" fill="#f472b6"/>
      <path d="M130 120 L140 120 L145 180 L135 180 Z" fill="#ec4899"/>
    </g>
  </g>
  
  <!-- Decorative Elements -->
  <circle cx="320" cy="80" r="15" fill="#f9a8d4" opacity="0.6"/>
  <circle cx="80" cy="320" r="12" fill="#ec4899" opacity="0.4"/>
  <path d="M350 150 L355 160 L365 155 L360 145 Z" fill="#fbbf24"/>
</svg>